<svg width="125" height="58" viewBox="0 0 125 58" fill="none" xmlns="http://www.w3.org/2000/svg">
<path d="M33.147 27.2336C31.6563 27.2336 30.495 26.9216 29.663 26.2976C28.8483 25.6736 28.2763 24.833 27.947 23.7756C27.635 22.7183 27.479 21.5396 27.479 20.2396V12.8036C27.479 11.3823 27.635 10.143 27.947 9.08563C28.2763 8.0283 28.8483 7.21363 29.663 6.64163C30.495 6.0523 31.6563 5.75763 33.147 5.75763C34.4643 5.75763 35.5043 6.0003 36.267 6.48563C37.047 6.97097 37.6017 7.6643 37.931 8.56563C38.2777 9.46697 38.451 10.5503 38.451 11.8156V13.4796H35.669V11.9976C35.669 11.2176 35.6257 10.533 35.539 9.94363C35.4697 9.33697 35.2617 8.86897 34.915 8.53963C34.5683 8.2103 33.9877 8.04563 33.173 8.04563C32.341 8.04563 31.7343 8.22763 31.353 8.59163C30.9717 8.9383 30.7203 9.44097 30.599 10.0996C30.495 10.741 30.443 11.495 30.443 12.3616V20.7076C30.443 21.765 30.5297 22.6056 30.703 23.2296C30.8763 23.8363 31.1623 24.2696 31.561 24.5296C31.9597 24.7896 32.497 24.9196 33.173 24.9196C33.9703 24.9196 34.5423 24.7463 34.889 24.3996C35.2357 24.0356 35.4523 23.5416 35.539 22.9176C35.6257 22.2936 35.669 21.5656 35.669 20.7336V19.1736H38.451V20.7336C38.451 22.0163 38.295 23.1516 37.983 24.1396C37.671 25.1103 37.1337 25.873 36.371 26.4276C35.6083 26.965 34.5337 27.2336 33.147 27.2336ZM45.2799 26.9996V5.93963H48.2179V24.8936H53.5999V26.9996H45.2799ZM59.7999 26.9996V5.93963H62.6859V26.9996H59.7999ZM75.4011 27.2336C73.9104 27.2336 72.7491 26.9216 71.9171 26.2976C71.1024 25.6736 70.5304 24.833 70.2011 23.7756C69.8891 22.7183 69.7331 21.5396 69.7331 20.2396V12.8036C69.7331 11.3823 69.8891 10.143 70.2011 9.08563C70.5304 8.0283 71.1024 7.21363 71.9171 6.64163C72.7491 6.0523 73.9104 5.75763 75.4011 5.75763C76.7184 5.75763 77.7584 6.0003 78.5211 6.48563C79.3011 6.97097 79.8557 7.6643 80.1851 8.56563C80.5317 9.46697 80.7051 10.5503 80.7051 11.8156V13.4796H77.9231V11.9976C77.9231 11.2176 77.8797 10.533 77.7931 9.94363C77.7237 9.33697 77.5157 8.86897 77.1691 8.53963C76.8224 8.2103 76.2417 8.04563 75.4271 8.04563C74.5951 8.04563 73.9884 8.22763 73.6071 8.59163C73.2257 8.9383 72.9744 9.44097 72.8531 10.0996C72.7491 10.741 72.6971 11.495 72.6971 12.3616V20.7076C72.6971 21.765 72.7837 22.6056 72.9571 23.2296C73.1304 23.8363 73.4164 24.2696 73.8151 24.5296C74.2137 24.7896 74.7511 24.9196 75.4271 24.9196C76.2244 24.9196 76.7964 24.7463 77.1431 24.3996C77.4897 24.0356 77.7064 23.5416 77.7931 22.9176C77.8797 22.2936 77.9231 21.5656 77.9231 20.7336V19.1736H80.7051V20.7336C80.7051 22.0163 80.5491 23.1516 80.2371 24.1396C79.9251 25.1103 79.3877 25.873 78.6251 26.4276C77.8624 26.965 76.7877 27.2336 75.4011 27.2336ZM87.5339 26.9996V5.93963H90.4719V15.8716L95.3079 5.93963H98.0379L93.8779 15.2216L98.7139 26.9996H95.8539L91.8239 17.1196L90.4719 19.5636V26.9996H87.5339Z" fill="#F0F0F0"/>
<path d="M110 48.9996H15M15 48.9996L34 40.9996M15 48.9996L34 56.9996" stroke="#F0F0F0"/>
</svg>
