<svg width="44" height="56" viewBox="0 0 44 56" fill="none" xmlns="http://www.w3.org/2000/svg">
<mask id="path-1-outside-1_394_235" maskUnits="userSpaceOnUse" x="6" y="4" width="32" height="52" fill="black">
<rect fill="white" x="6" y="4" width="32" height="52"/>
<path d="M18.6484 40.7871C18.6699 39.2402 18.7344 37.9727 18.8418 36.9844C18.9492 35.9746 19.1748 35.0723 19.5186 34.2773C19.8623 33.5039 20.3564 32.7627 21.001 32.0537C21.6455 31.3232 22.5049 30.4639 23.5791 29.4756C24.3096 28.7236 25.0508 27.9502 25.8027 27.1553C26.5762 26.3604 27.2852 25.5225 27.9297 24.6416C28.5527 23.7822 29.0684 22.8691 29.4766 21.9023C29.8848 20.9355 30.0889 19.915 30.0889 18.8408C30.0889 17.7236 29.9277 16.7354 29.6055 15.876C29.3047 14.9951 28.8535 14.2539 28.252 13.6523C27.5859 12.9863 26.748 12.4814 25.7383 12.1377C24.7285 11.7939 23.5684 11.6221 22.2578 11.6221C21.248 11.6221 20.2598 11.751 19.293 12.0088C18.3477 12.2451 17.5098 12.6211 16.7793 13.1367C16.0273 13.6738 15.4258 14.3506 14.9746 15.167C14.5234 15.9619 14.2979 16.918 14.2979 18.0352H8.33594C8.35742 16.2305 8.7334 14.6084 9.46387 13.1689C10.1943 11.7295 11.1826 10.5049 12.4287 9.49512C13.6533 8.50684 15.1035 7.75488 16.7793 7.23926C18.4766 6.70215 20.3027 6.43359 22.2578 6.43359C24.4277 6.43359 26.3613 6.71289 28.0586 7.27148C29.7773 7.80859 31.2275 8.60352 32.4092 9.65625C33.5908 10.709 34.4932 11.9873 35.1162 13.4912C35.7393 14.9951 36.0508 16.7139 36.0508 18.6475C36.0508 20.1943 35.7822 21.6553 35.2451 23.0303C34.708 24.3838 34.0205 25.6621 33.1826 26.8652C32.3447 28.0898 31.3994 29.2285 30.3467 30.2812C29.3154 31.334 28.2949 32.3115 27.2852 33.2139C26.6406 33.8369 26.1357 34.4277 25.7705 34.9863C25.4268 35.5449 25.1689 36.1143 24.9971 36.6943C24.8252 37.2744 24.7178 37.8975 24.6748 38.5635C24.6318 39.208 24.6104 39.9492 24.6104 40.7871H18.6484ZM17.9717 50.874C17.9717 49.8428 18.2725 48.9834 18.874 48.2959C19.4971 47.6084 20.4209 47.2646 21.6455 47.2646C22.8701 47.2646 23.7939 47.6084 24.417 48.2959C25.0615 48.9834 25.3838 49.8428 25.3838 50.874C25.3838 51.8623 25.0615 52.6895 24.417 53.3555C23.7939 54.0215 22.8701 54.3545 21.6455 54.3545C20.4209 54.3545 19.4971 54.0215 18.874 53.3555C18.2725 52.6895 17.9717 51.8623 17.9717 50.874Z"/>
</mask>
<path d="M18.6484 40.7871L17.1486 40.7663L17.1275 42.2871H18.6484V40.7871ZM18.8418 36.9844L20.333 37.1465L20.3334 37.1431L18.8418 36.9844ZM19.5186 34.2773L18.1478 33.6681L18.1448 33.675L18.1418 33.682L19.5186 34.2773ZM21.001 32.0537L22.1109 33.0627L22.1184 33.0545L22.1257 33.0461L21.001 32.0537ZM23.5791 29.4756L24.5947 30.5795L24.6257 30.551L24.655 30.5208L23.5791 29.4756ZM25.8027 27.1553L24.7276 26.1092L24.7203 26.1168L24.713 26.1245L25.8027 27.1553ZM27.9297 24.6416L29.1402 25.5274L29.1441 25.5221L27.9297 24.6416ZM29.6055 15.876L28.1859 16.3607L28.1931 16.3818L28.201 16.4027L29.6055 15.876ZM19.293 12.0088L19.6568 13.464L19.6681 13.4612L19.6795 13.4581L19.293 12.0088ZM16.7793 13.1367L15.9143 11.9112L15.9074 11.9161L16.7793 13.1367ZM14.9746 15.167L16.2791 15.9074L16.2833 15.9L16.2875 15.8925L14.9746 15.167ZM14.2979 18.0352V19.5352H15.7979V18.0352H14.2979ZM8.33594 18.0352L6.83604 18.0173L6.81797 19.5352H8.33594V18.0352ZM12.4287 9.49512L11.4867 8.32782L11.4843 8.32972L12.4287 9.49512ZM16.7793 7.23926L17.2204 8.67297L17.2319 8.66936L16.7793 7.23926ZM28.0586 7.27148L27.5897 8.6963L27.6004 8.69983L27.6112 8.7032L28.0586 7.27148ZM35.2451 23.0303L36.6394 23.5835L36.6423 23.576L35.2451 23.0303ZM33.1826 26.8652L31.9517 26.008L31.9447 26.0182L33.1826 26.8652ZM30.3467 30.2812L29.286 29.2206L29.2806 29.2261L29.2751 29.2316L30.3467 30.2812ZM27.2852 33.2139L26.2857 32.0954L26.2637 32.115L26.2426 32.1354L27.2852 33.2139ZM25.7705 34.9863L24.5151 34.1655L24.5038 34.1827L24.493 34.2002L25.7705 34.9863ZM24.6748 38.5635L26.1715 38.6633L26.1717 38.66L24.6748 38.5635ZM24.6104 40.7871V42.2871H26.1104V40.7871H24.6104ZM18.874 48.2959L17.7625 47.2886L17.7538 47.2983L17.7452 47.3081L18.874 48.2959ZM24.417 48.2959L23.3055 49.3032L23.314 49.3126L23.3227 49.3218L24.417 48.2959ZM24.417 53.3555L23.3391 52.3123L23.3303 52.3215L23.3216 52.3307L24.417 53.3555ZM18.874 53.3555L17.7609 54.3609L17.7697 54.3706L17.7786 54.3802L18.874 53.3555ZM20.1483 40.8079C20.1694 39.2855 20.2327 38.0696 20.333 37.1465L17.3506 36.8223C17.2361 37.8757 17.1704 39.195 17.1486 40.7663L20.1483 40.8079ZM20.3334 37.1431C20.4275 36.2585 20.621 35.5071 20.8953 34.8727L18.1418 33.682C17.7286 34.6374 17.471 35.6907 17.3502 36.8257L20.3334 37.1431ZM20.8893 34.8866C21.16 34.2774 21.56 33.6686 22.1109 33.0627L19.8911 31.0447C19.1528 31.8568 18.5646 32.7305 18.1478 33.6681L20.8893 34.8866ZM22.1257 33.0461C22.7234 32.3687 23.5419 31.548 24.5947 30.5795L22.5635 28.3717C21.4678 29.3797 20.5676 30.2777 19.8762 31.0613L22.1257 33.0461ZM24.655 30.5208C25.3903 29.7638 26.1361 28.9856 26.8924 28.1861L24.713 26.1245C23.9654 26.9148 23.2288 27.6834 22.5032 28.4304L24.655 30.5208ZM26.8778 28.2013C27.6993 27.357 28.4537 26.4656 29.1402 25.5274L26.7191 23.7558C26.1166 24.5793 25.453 25.3637 24.7276 26.1092L26.8778 28.2013ZM29.1441 25.5221C29.8333 24.5714 30.4054 23.5588 30.8584 22.4858L28.0947 21.3189C27.7313 22.1794 27.2722 22.993 26.7153 23.7612L29.1441 25.5221ZM30.8584 22.4858C31.3465 21.3299 31.5889 20.1106 31.5889 18.8408H28.5889C28.5889 19.7195 28.4231 20.5411 28.0947 21.3189L30.8584 22.4858ZM31.5889 18.8408C31.5889 17.5816 31.4074 16.4092 31.01 15.3493L28.201 16.4027C28.448 17.0615 28.5889 17.8656 28.5889 18.8408H31.5889ZM31.025 15.3913C30.6572 14.3143 30.091 13.3701 29.3126 12.5917L27.1913 14.713C27.616 15.1377 27.9521 15.676 28.1859 16.3607L31.025 15.3913ZM29.3126 12.5917C28.4639 11.7429 27.4199 11.1256 26.2217 10.7177L25.2549 13.5577C26.0762 13.8373 26.708 14.2297 27.1913 14.713L29.3126 12.5917ZM26.2217 10.7177C25.0253 10.3105 23.6966 10.1221 22.2578 10.1221V13.1221C23.4401 13.1221 24.4317 13.2774 25.2549 13.5577L26.2217 10.7177ZM22.2578 10.1221C21.1188 10.1221 20.0005 10.2677 18.9065 10.5594L19.6795 13.4581C20.519 13.2343 21.3773 13.1221 22.2578 13.1221V10.1221ZM18.9292 10.5536C17.8202 10.8308 16.8092 11.2795 15.9143 11.9113L17.6443 14.3622C18.2103 13.9627 18.8751 13.6594 19.6568 13.464L18.9292 10.5536ZM15.9074 11.9161C14.9716 12.5846 14.2201 13.4311 13.6617 14.4415L16.2875 15.8925C16.6315 15.2701 17.0831 14.7631 17.6512 14.3573L15.9074 11.9161ZM13.6701 14.4266C13.0652 15.4924 12.7979 16.7157 12.7979 18.0352H15.7979C15.7979 17.1202 15.9817 16.4315 16.2791 15.9074L13.6701 14.4266ZM14.2979 16.5352H8.33594V19.5352H14.2979V16.5352ZM9.83583 18.053C9.85491 16.4508 10.1868 15.0591 10.8015 13.8477L8.12624 12.4902C7.28003 14.1577 6.85994 16.0102 6.83604 18.0173L9.83583 18.053ZM10.8015 13.8477C11.4372 12.5951 12.2919 11.5366 13.3731 10.6605L11.4843 8.32972C10.0733 9.47312 8.9515 10.8639 8.12624 12.4902L10.8015 13.8477ZM13.3707 10.6624C14.4308 9.80692 15.7062 9.13883 17.2204 8.67293L16.3382 5.80559C14.5008 6.37094 12.8758 7.20675 11.4867 8.32782L13.3707 10.6624ZM17.2319 8.66936C18.7691 8.18288 20.4413 7.93359 22.2578 7.93359V4.93359C20.1642 4.93359 18.184 5.22141 16.3267 5.80916L17.2319 8.66936ZM22.2578 7.93359C24.3014 7.93359 26.0721 8.19686 27.5897 8.6963L28.5275 5.84667C26.6505 5.22892 24.5541 4.93359 22.2578 4.93359V7.93359ZM27.6112 8.7032C29.1544 9.18547 30.4095 9.88367 31.4114 10.7762L33.407 8.53626C32.0456 7.32336 30.4003 6.43172 28.506 5.83976L27.6112 8.7032ZM31.4114 10.7762C32.4193 11.6742 33.1914 12.7641 33.7304 14.0653L36.502 12.9171C35.795 11.2105 34.7624 9.74377 33.407 8.53626L31.4114 10.7762ZM33.7304 14.0653C34.2653 15.3564 34.5508 16.8746 34.5508 18.6475H37.5508C37.5508 16.5532 37.2132 14.6338 36.502 12.9171L33.7304 14.0653ZM34.5508 18.6475C34.5508 20.0167 34.3139 21.2917 33.8479 22.4845L36.6423 23.576C37.2506 22.0189 37.5508 20.372 37.5508 18.6475H34.5508ZM33.8509 22.477C33.3566 23.7225 32.7241 24.8989 31.9517 26.008L34.4135 27.7225C35.3169 26.4253 36.0594 25.0451 36.6394 23.5835L33.8509 22.477ZM31.9447 26.0182C31.1593 27.166 30.2734 28.2332 29.286 29.2206L31.4073 31.3419C32.5254 30.2238 33.5301 29.0137 34.4206 27.7123L31.9447 26.0182ZM29.2751 29.2316C28.2651 30.2626 27.2686 31.217 26.2857 32.0954L28.2847 34.3324C29.3212 33.406 30.3657 32.4053 31.4182 31.3309L29.2751 29.2316ZM26.2426 32.1354C25.5432 32.8115 24.9582 33.4877 24.5151 34.1655L27.026 35.8072C27.3133 35.3678 27.738 34.8624 28.3277 34.2923L26.2426 32.1354ZM24.493 34.2002C24.0859 34.8618 23.7712 35.5514 23.5589 36.2682L26.4353 37.1205C26.5666 36.6771 26.7677 36.228 27.048 35.7725L24.493 34.2002ZM23.5589 36.2682C23.3521 36.966 23.2274 37.7005 23.1779 38.4669L26.1717 38.66C26.2082 38.0944 26.2983 37.5829 26.4353 37.1205L23.5589 36.2682ZM23.1781 38.4637C23.1324 39.1495 23.1104 39.9251 23.1104 40.7871H26.1104C26.1104 39.9733 26.1313 39.2665 26.1715 38.6633L23.1781 38.4637ZM24.6104 39.2871H18.6484V42.2871H24.6104V39.2871ZM19.4717 50.874C19.4717 50.1561 19.6716 49.6623 20.0029 49.2837L17.7452 47.3081C16.8733 48.3045 16.4717 49.5295 16.4717 50.874H19.4717ZM19.9855 49.3032C20.2408 49.0215 20.7017 48.7646 21.6455 48.7646V45.7646C20.1401 45.7646 18.7534 46.1953 17.7625 47.2886L19.9855 49.3032ZM21.6455 48.7646C22.5894 48.7646 23.0503 49.0215 23.3055 49.3032L25.5285 47.2886C24.5376 46.1953 23.1509 45.7646 21.6455 45.7646V48.7646ZM23.3227 49.3218C23.681 49.704 23.8838 50.1847 23.8838 50.874H26.8838C26.8838 49.5008 26.4421 48.2628 25.5113 47.27L23.3227 49.3218ZM23.8838 50.874C23.8838 51.5015 23.6937 51.9459 23.3391 52.3123L25.4949 54.3986C26.4293 53.433 26.8838 52.2232 26.8838 50.874H23.8838ZM23.3216 52.3307C23.0696 52.6001 22.6031 52.8545 21.6455 52.8545V55.8545C23.1371 55.8545 24.5183 55.4429 25.5124 54.3802L23.3216 52.3307ZM21.6455 52.8545C20.6879 52.8545 20.2214 52.6001 19.9694 52.3307L17.7786 54.3802C18.7727 55.4429 20.1539 55.8545 21.6455 55.8545V52.8545ZM19.9872 52.35C19.6606 51.9885 19.4717 51.5315 19.4717 50.874H16.4717C16.4717 52.1931 16.8843 53.3905 17.7609 54.3609L19.9872 52.35Z" fill="black" mask="url(#path-1-outside-1_394_235)"/>
</svg>
